{
	"asset":{
		"generator":"Khronos glTF Blender I/O v4.1.63",
		"version":"2.0"
	},
	"extensionsUsed":[
		"KHR_materials_emissive_strength"
	],
	"scene":0,
	"scenes":[
		{
			"name":"Scene",
			"nodes":[
				0
			]
		}
	],
	"nodes":[
		{
			"mesh":0,
			"name":"Cube",
			"scale":[
				1.519437551498413,
				1.0730373859405518,
				0.09878578037023544
			],
			"translation":[
				0.008480473421514034,
				0,
				0
			]
		}
	],
	"materials":[
		{
			"doubleSided":true,
			"emissiveFactor":[
				1,
				1,
				1
			],
			"extensions":{
				"KHR_materials_emissive_strength":{
					"emissiveStrength":9.999999046325684
				}
			},
			"name":"Material",
			"pbrMetallicRoughness":{
				"baseColorFactor":[
					0,
					0,
					0,
					1
				]
			}
		}
	],
	"meshes":[
		{
			"name":"Cube",
			"primitives":[
				{
					"attributes":{
						"POSITION":0,
						"NORMAL":1,
						"TEXCOORD_0":2
					},
					"indices":3,
					"material":0
				}
			]
		}
	],
	"accessors":[
		{
			"bufferView":0,
			"componentType":5126,
			"count":1846,
			"max":[
				1,
				1,
				1
			],
			"min":[
				-1,
				-1,
				-1
			],
			"type":"VEC3"
		},
		{
			"bufferView":1,
			"componentType":5126,
			"count":1846,
			"type":"VEC3"
		},
		{
			"bufferView":2,
			"componentType":5126,
			"count":1846,
			"type":"VEC2"
		},
		{
			"bufferView":3,
			"componentType":5123,
			"count":7236,
			"type":"SCALAR"
		}
	],
	"bufferViews":[
		{
			"buffer":0,
			"byteLength":22152,
			"byteOffset":0,
			"target":34962
		},
		{
			"buffer":0,
			"byteLength":22152,
			"byteOffset":22152,
			"target":34962
		},
		{
			"buffer":0,
			"byteLength":14768,
			"byteOffset":44304,
			"target":34962
		},
		{
			"buffer":0,
			"byteLength":14472,
			"byteOffset":59072,
			"target":34963
		}
	],
	"buffers":[
		{
			"byteLength":73544,
			"uri":"panel.bin"
		}
	]
}
